<svg width="23" height="23" viewBox="0 0 23 23" fill="none" xmlns="http://www.w3.org/2000/svg">
<g clip-path="url(#clip0_4_1015)">
<g clip-path="url(#clip1_4_1015)">
<g clip-path="url(#clip2_4_1015)">
<path d="M22.177 11.6743C22.177 5.5883 17.212 0.654297 11.089 0.654297C4.963 0.654297 0 5.5883 0 11.6743C0 17.1743 4.055 21.7343 9.356 22.5613V14.8603H6.54V11.6743H9.356V9.2463C9.356 6.4853 11.011 4.9593 13.544 4.9593C14.757 4.9593 16.026 5.1743 16.026 5.1743V7.8863H14.628C13.251 7.8863 12.821 8.7363 12.821 9.6083V11.6743H15.896L15.405 14.8603H12.82V22.5603C18.121 21.7343 22.177 17.1753 22.177 11.6743Z" fill="white"/>
</g>
</g>
</g>
<defs>
<clipPath id="clip0_4_1015">
<rect width="23" height="23" fill="white"/>
</clipPath>
<clipPath id="clip1_4_1015">
<rect width="23" height="23" fill="white"/>
</clipPath>
<clipPath id="clip2_4_1015">
<rect width="23" height="23" fill="white"/>
</clipPath>
</defs>
</svg>
