<svg width="23" height="23" viewBox="0 0 23 23" fill="none" xmlns="http://www.w3.org/2000/svg">
<g clip-path="url(#clip0_4_1028)">
<g clip-path="url(#clip1_4_1028)">
<path d="M11.9848 2.6393C14.9288 2.6393 15.2778 2.6523 16.4348 2.7033C17.5118 2.7513 18.0928 2.9313 18.4808 3.0833C18.9928 3.2803 19.3628 3.5213 19.7458 3.9043C20.1338 4.2923 20.3698 4.6583 20.5688 5.1703C20.7188 5.5573 20.8988 6.1433 20.9468 7.2153C20.9988 8.3773 21.0118 8.7253 21.0118 11.6653C21.0118 14.6103 20.9988 14.9593 20.9468 16.1173C20.8998 17.1933 20.7188 17.7743 20.5688 18.1613C20.3698 18.6743 20.1288 19.0443 19.7458 19.4273C19.3913 19.7928 18.9589 20.0738 18.4808 20.2493C18.0928 20.4003 17.5078 20.5813 16.4358 20.6293C15.2738 20.6793 14.9248 20.6933 11.9848 20.6933C9.03984 20.6933 8.69184 20.6803 7.53384 20.6283C6.45784 20.5813 5.87684 20.4003 5.48884 20.2493C5.01071 20.0734 4.5781 19.7925 4.22284 19.4273C3.85731 19.0727 3.57635 18.6404 3.40084 18.1623C3.25084 17.7743 3.06984 17.1893 3.02184 16.1173C2.97084 14.9543 2.95784 14.6063 2.95784 11.6663C2.95784 8.7213 2.97084 8.3733 3.02184 7.2153C3.06984 6.1383 3.25084 5.5573 3.40184 5.1703C3.59884 4.6583 3.83984 4.2873 4.22284 3.9043C4.5777 3.53863 5.01043 3.25767 5.48884 3.0823C5.87684 2.9323 6.46184 2.7513 7.53384 2.7033C8.69184 2.6523 9.04084 2.6393 11.9848 2.6393ZM11.9848 0.654297C8.99284 0.654297 8.61884 0.667297 7.44284 0.719297C6.27284 0.771297 5.46784 0.959297 4.76984 1.2313C4.03316 1.50792 3.36615 1.94282 2.81584 2.5053C2.25438 3.05488 1.8196 3.72036 1.54184 4.4553C1.26984 5.1573 1.08184 5.9583 1.02884 7.1293C0.977844 8.3093 0.964844 8.6833 0.964844 11.6743C0.964844 14.6663 0.977844 15.0413 1.02884 16.2163C1.08084 17.3863 1.26984 18.1923 1.54184 18.8893C1.81844 19.626 2.25334 20.293 2.81584 20.8433C3.36541 21.4038 4.03098 21.8373 4.76584 22.1133C5.46784 22.3843 6.26784 22.5733 7.43884 22.6253C8.61384 22.6773 8.98884 22.6903 11.9808 22.6903C14.9718 22.6903 15.3468 22.6773 16.5218 22.6253C17.6918 22.5743 18.4978 22.3853 19.1948 22.1133C19.9296 21.8371 20.5951 21.4036 21.1448 20.8433C21.7052 20.2936 22.1386 19.6281 22.4148 18.8933C22.6858 18.1923 22.8748 17.3913 22.9268 16.2203C22.9788 15.0453 22.9918 14.6703 22.9918 11.6793C22.9918 8.6873 22.9788 8.3123 22.9268 7.1373C22.8758 5.9673 22.6868 5.1613 22.4148 4.4643C22.1493 3.72372 21.718 3.05365 21.1538 2.5053C20.6041 1.94495 19.9386 1.5115 19.2038 1.2353C18.5018 0.965297 17.6998 0.775297 16.5298 0.723297C15.3498 0.667297 14.9768 0.654297 11.9848 0.654297Z" fill="white"/>
<path d="M11.985 6.01402C10.484 6.01455 9.04465 6.61104 7.98331 7.67238C6.92197 8.73372 6.32548 10.1731 6.32495 11.674C6.32522 13.1752 6.92159 14.6147 7.98296 15.6763C9.04433 16.7379 10.4838 17.3345 11.985 17.335C13.4859 17.3345 14.9252 16.738 15.9866 15.6767C17.0479 14.6153 17.6444 13.176 17.645 11.675C17.6447 10.1739 17.0483 8.73429 15.9869 7.67273C14.9256 6.61118 13.4861 6.01455 11.985 6.01402ZM11.985 15.346C11.5027 15.346 11.0251 15.2509 10.5796 15.0663C10.134 14.8817 9.72923 14.6111 9.38825 14.27C8.69962 13.5812 8.31282 12.647 8.31295 11.673C8.31308 10.699 8.70013 9.76495 9.38896 9.07631C10.0778 8.38768 11.0119 8.00089 11.986 8.00102C12.96 8.00115 13.894 8.3882 14.5827 9.07702C15.2713 9.76584 15.6581 10.7 15.658 11.674C15.6578 12.648 15.2708 13.5821 14.5819 14.2707C13.8931 14.9594 12.959 15.3462 11.985 15.346ZM19.19 5.79002C19.19 6.14063 19.0507 6.47689 18.8027 6.72481C18.5548 6.97274 18.2186 7.11202 17.868 7.11202C17.5173 7.11202 17.1811 6.97274 16.9332 6.72481C16.6852 6.47689 16.546 6.14063 16.546 5.79002C16.546 5.4394 16.6852 5.10315 16.9332 4.85522C17.1811 4.6073 17.5173 4.46802 17.868 4.46802C18.2186 4.46802 18.5548 4.6073 18.8027 4.85522C19.0507 5.10315 19.19 5.4394 19.19 5.79002Z" fill="white"/>
</g>
</g>
<defs>
<clipPath id="clip0_4_1028">
<rect width="23" height="23" fill="white"/>
</clipPath>
<clipPath id="clip1_4_1028">
<rect width="23" height="23" fill="white"/>
</clipPath>
</defs>
</svg>
