<svg width="11" height="11" viewBox="0 0 11 11" fill="none" xmlns="http://www.w3.org/2000/svg">
<path d="M0.0115272 10.051H2.16492V2.87351H0.0115272V10.051ZM8.40081 2.62489C7.35573 2.62489 6.42063 3.00654 5.75728 3.84895V2.8499H3.59599V10.051H5.75728V6.15686C5.75728 5.33387 6.51127 4.53101 7.45568 4.53101C8.4001 4.53101 8.633 5.33387 8.633 6.13672V10.0503H10.7864V5.97645C10.7863 3.14668 9.4466 2.62489 8.40081 2.62489ZM1.07816 2.15624C1.67329 2.15624 2.15632 1.67321 2.15632 1.07808C2.15632 0.482945 1.67329 0 1.07816 0C0.483024 0 0 0.483024 0 1.07816C0 1.67329 0.483024 2.15624 1.07816 2.15624Z" fill="white"/>
</svg>
