<svg width="16" height="23" viewBox="0 0 16 23" fill="none" xmlns="http://www.w3.org/2000/svg">
<path d="M7.77734 0.5C11.801 0.5 15.0554 3.75368 15.0557 7.77734C15.0557 9.13448 14.6001 10.6921 13.8838 12.291C13.1704 13.8834 12.2147 15.4812 11.252 16.9082C10.2902 18.3336 9.32716 19.5803 8.60449 20.4707C8.26839 20.8848 7.98421 21.2209 7.77734 21.4619C7.57052 21.221 7.28706 20.8846 6.95117 20.4707C6.22851 19.5803 5.26545 18.3336 4.30371 16.9082C3.34093 15.4812 2.38527 13.8834 1.67188 12.291C0.955566 10.6921 0.5 9.13449 0.5 7.77734C0.500234 3.75383 3.75383 0.500233 7.77734 0.5ZM7.77734 4.5C5.96821 4.50023 4.50024 5.96821 4.5 7.77734C4.5 9.58667 5.96806 11.0554 7.77734 11.0557C9.58683 11.0557 11.0557 9.58681 11.0557 7.77734C11.0554 5.96808 9.58668 4.5 7.77734 4.5Z" fill="black" stroke="white"/>
</svg>
