<svg width="22" height="22" viewBox="0 0 22 22" fill="none" xmlns="http://www.w3.org/2000/svg">
<path d="M3.66699 3.25H6.875C7.10302 3.25 7.29199 3.43897 7.29199 3.66699C7.29203 4.86335 7.48287 6.01336 7.83691 7.08789V7.08887C7.88437 7.23987 7.85059 7.40133 7.73145 7.52051L5.45801 9.79395L5.62305 10.1172C6.9914 12.8064 9.19426 15.0004 11.8809 16.377L12.2051 16.543L14.4795 14.2686C14.5924 14.1557 14.7589 14.1202 14.8984 14.168L14.9043 14.1699C15.9813 14.5257 17.1432 14.7177 18.333 14.7178C18.5609 14.7178 18.7498 14.9059 18.75 15.1338V18.333C18.75 18.561 18.561 18.75 18.333 18.75C10.0019 18.7498 3.25018 11.9981 3.25 3.66699C3.25 3.43897 3.43897 3.25 3.66699 3.25Z" fill="black" stroke="white"/>
</svg>
