<svg width="31" height="31" viewBox="0 0 31 31" fill="none" xmlns="http://www.w3.org/2000/svg">
<path d="M22.1541 19.434H20.7539L20.2577 18.9569C21.9946 16.9429 23.0402 14.3281 23.0402 11.4837C23.0402 5.14117 17.8828 0 11.5201 0C5.15747 0 0 5.14117 0 11.4837C0 17.8262 5.15747 22.9674 11.5201 22.9674C14.3736 22.9674 16.9966 21.925 19.0171 20.1937L19.4956 20.6883V22.084L28.3572 30.9L30.998 28.2676L22.1541 19.434ZM11.5201 19.434C7.10703 19.434 3.54465 15.8828 3.54465 11.4837C3.54465 7.08456 7.10703 3.53345 11.5201 3.53345C15.9332 3.53345 19.4956 7.08456 19.4956 11.4837C19.4956 15.8828 15.9332 19.434 11.5201 19.434Z" fill="white"/>
</svg>
