<svg width="28" height="21" viewBox="0 0 28 21" fill="none" xmlns="http://www.w3.org/2000/svg">
<g clip-path="url(#clip0_4_1034)">
<path d="M28.0002 10.4101C28.0002 10.3397 28.0002 10.2578 27.9966 10.1647L27.9808 9.29501C27.9582 8.41201 27.9123 7.52981 27.8432 6.6494C27.7495 5.48266 27.6119 4.51101 27.4244 3.78101C27.2264 3.01921 26.8386 2.32444 26.2996 1.76611C25.7606 1.20778 25.0894 0.805424 24.3529 0.599231C23.4691 0.352543 21.738 0.20025 19.3008 0.107113C17.6876 0.045365 16.0735 0.0109582 14.4592 0.00390625H13.5401C13.1773 0.0076821 12.7743 0.0101993 12.3397 0.0164924C11.0992 0.0328544 9.85868 0.0618026 8.6985 0.107113C6.26128 0.204026 4.5265 0.356319 3.64511 0.597973C2.9086 0.803778 2.23731 1.20603 1.69848 1.76443C1.15964 2.32284 0.772163 3.01782 0.57485 3.77975C0.384936 4.50975 0.249806 5.48266 0.156067 6.6494C0.0875693 7.52985 0.041698 8.41203 0.0185017 9.29501C0.00876257 9.6084 0.00632779 9.90292 0.00267561 10.1647C0.00267561 10.2578 -0.000976562 10.3397 -0.000976562 10.4101V10.5914C-0.000976562 10.6619 -0.000976562 10.7437 0.00267561 10.8368L0.0185017 11.7065C0.0440669 12.6077 0.0866756 13.5063 0.156067 14.3521C0.249806 15.5189 0.387371 16.4905 0.57485 17.2205C0.772156 17.9827 1.15978 18.6778 1.69886 19.2362C2.23794 19.7947 2.90954 20.1968 3.64633 20.4023C4.52772 20.6477 6.2625 20.8 8.69972 20.8931C10.3129 20.955 11.927 20.9894 13.5413 20.9964H14.4604C14.8232 20.9926 15.2262 20.9901 15.6608 20.9838C16.9013 20.9674 18.1418 20.9385 19.302 20.8931C21.7392 20.7962 23.474 20.6439 24.3554 20.4023C25.0925 20.1975 25.7645 19.7956 26.3036 19.2371C26.8428 18.6785 27.2302 17.983 27.4268 17.2205C27.618 16.4905 27.7519 15.5176 27.8456 14.3521C27.9138 13.5051 27.9576 12.6077 27.9832 11.7065C27.9929 11.3931 27.9954 11.0986 27.999 10.8368C27.999 10.7437 28.0027 10.6619 28.0027 10.5914V10.4101H28.0002ZM25.7505 10.5775C25.7505 10.6455 25.7505 10.7198 25.7469 10.8066L25.731 11.6373C25.7107 12.4775 25.6668 13.3169 25.5995 14.1545C25.5155 15.1954 25.3962 16.0475 25.2502 16.6201C25.1549 16.9877 24.9679 17.3229 24.7079 17.5921C24.4478 17.8614 24.1239 18.0553 23.7686 18.1544C23.1124 18.3356 21.4592 18.4804 19.2119 18.5685C17.6243 18.6295 16.0357 18.6631 14.447 18.6692H13.5535L12.3726 18.6591C11.1776 18.6444 9.98284 18.6142 8.78859 18.5685C6.54128 18.4779 4.88563 18.3356 4.23189 18.1544C3.87695 18.0545 3.55345 17.8603 3.29355 17.5912C3.03364 17.322 2.84637 16.9873 2.75033 16.6201C2.60302 16.0487 2.48494 15.1954 2.40094 14.1545C2.33548 13.3168 2.29164 12.4774 2.26946 11.6373C2.25972 11.3365 2.25728 11.0558 2.25363 10.8066C2.25363 10.7198 2.24998 10.6417 2.24998 10.5775V10.4227C2.24998 10.3548 2.24998 10.2805 2.25363 10.1937L2.26946 9.36297C2.29137 8.50334 2.3352 7.6437 2.40094 6.84574C2.48494 5.80487 2.60424 4.95278 2.75033 4.38011C2.84559 4.01258 3.0326 3.67739 3.29262 3.40811C3.55265 3.13884 3.87656 2.94495 4.23189 2.84586C4.88807 2.66462 6.54128 2.51988 8.78859 2.43178C10.3762 2.37076 11.9647 2.3372 13.5535 2.33109H14.447L15.6279 2.34116C16.8502 2.35752 18.0712 2.38647 19.2119 2.43178C21.4592 2.5224 23.1149 2.66462 23.7686 2.84586C24.4869 3.04598 25.0566 3.63375 25.2502 4.38011C25.3975 4.95152 25.5155 5.80487 25.5995 6.84574C25.6653 7.6437 25.7055 8.50334 25.731 9.36297C25.7408 9.66378 25.7432 9.94445 25.7469 10.1937C25.7469 10.2805 25.7505 10.3585 25.7505 10.4227V10.5775ZM11.2185 14.8291L18.4681 10.468L11.2185 6.17112V14.8291Z" fill="white"/>
</g>
<defs>
<clipPath id="clip0_4_1034">
<rect width="28" height="21" fill="white"/>
</clipPath>
</defs>
</svg>
